<svg xmlns="http://www.w3.org/2000/svg" viewBox="0 0 286.98 286.95"><defs><style>.cls-1{font-size:60px;fill:#fff;font-family:Norwester-Regular, Norwester;}</style></defs><title>Asset 4</title><g id="Layer_2" data-name="Layer 2"><g id="Layer_1-2" data-name="Layer 1"><text class="cls-1" transform="matrix(0.91, -0.42, 0.42, 0.91, 90.88, 65.93)">P</text><text class="cls-1" transform="translate(123.38 51.95) rotate(-3.13)">U</text><text class="cls-1" transform="translate(158.73 51.01) rotate(18.56)">S</text><text class="cls-1" transform="translate(191.9 63.25) rotate(40.34)">H</text><text class="cls-1" transform="translate(218.11 87.11) rotate(61.36)">T</text><text class="cls-1" transform="matrix(0.13, 0.99, -0.99, 0.13, 233.26, 116.51)">H</text><text class="cls-1" transform="translate(236.84 151.75) rotate(104.21)">E</text><text class="cls-1" transform="matrix(-0.59, 0.81, -0.81, -0.59, 227.18, 185.7)">B</text><text class="cls-1" transform="translate(205.51 213.73) rotate(147.71)">O</text><text class="cls-1" transform="translate(175.08 231.75) rotate(169.58)">U</text><text class="cls-1" transform="translate(140.15 237.28) rotate(-168.32)">N</text><text class="cls-1" transform="translate(104.3 228.64) rotate(-146.02)">D</text><text class="cls-1" transform="translate(76.5 209.65) rotate(-123.93)">A</text><text class="cls-1" transform="translate(55.3 175.44) rotate(-100.44)">R</text><text class="cls-1" transform="translate(50.82 139.21) rotate(-83.05)">I</text><text class="cls-1" transform="translate(53.01 119) rotate(-65.63)">E</text><text class="cls-1" transform="translate(67.55 88.59) rotate(-44.93)">S</text></g></g></svg>