<svg xmlns="http://www.w3.org/2000/svg" viewBox="0 0 286.98 286.95"><defs><style>.cls-1{font-size:60px;fill:#fff;font-family:Norwester-Regular, Norwester;}</style></defs><title>Asset 13</title><g id="Layer_2" data-name="Layer 2"><g id="Layer_1-2" data-name="Layer 1"><text class="cls-1" transform="matrix(0.91, -0.42, 0.42, 0.91, 90.88, 65.93)">P</text><text class="cls-1" transform="translate(120 52.75) rotate(-5.23)">U</text><text class="cls-1" transform="translate(151.9 50.15) rotate(14.32)">S</text><text class="cls-1" transform="translate(182.78 58.39) rotate(34.04)">H</text><text class="cls-1" transform="matrix(0.65, 0.76, -0.76, 0.65, 208.92, 77.68)"> </text><text class="cls-1" transform="matrix(0.43, 0.9, -0.9, 0.43, 220.84, 90.9)">T</text><text class="cls-1" transform="translate(233.6 117.68) rotate(83.3)">H</text><text class="cls-1" transform="translate(237 149.51) rotate(102.82)">E</text><text class="cls-1" transform="matrix(-0.48, 0.88, -0.88, -0.48, 228.5, 180.77)"> </text><text class="cls-1" transform="translate(220.67 196.65) rotate(133.79)">B</text><text class="cls-1" transform="translate(198.25 219.55) rotate(153.41)">O</text><text class="cls-1" transform="matrix(-0.99, 0.12, -0.12, -0.99, 169.51, 233.54)">U</text><text class="cls-1" transform="translate(137.75 237.16) rotate(-166.84)">N</text><text class="cls-1" transform="translate(105.26 229.07) rotate(-146.67)">D</text><text class="cls-1" transform="translate(79.74 212.77) rotate(-126.66)">A</text><text class="cls-1" transform="translate(58.32 182.78) rotate(-105.32)">R</text><text class="cls-1" transform="translate(51.1 150.63) rotate(-90.93)">I</text><text class="cls-1" transform="translate(50.29 133.58) rotate(-74.77)">E</text><text class="cls-1" transform="matrix(0.56, -0.83, 0.83, 0.56, 58.31, 104.36)">S</text></g></g></svg>